<svg width="52" height="22" viewBox="0 0 52 22" fill="none" xmlns="http://www.w3.org/2000/svg">
<path d="M9.50226 3.20742C8.90453 3.91675 7.94817 4.47621 6.99181 4.39629C6.87227 3.4372 7.34049 2.41817 7.8884 1.78877C8.48612 1.05947 9.53214 0.539962 10.3789 0.5C10.4785 1.49905 10.09 2.47812 9.50226 3.20742ZM10.369 4.58611C8.98423 4.50619 7.79874 5.37536 7.14124 5.37536C6.47378 5.37536 5.46761 4.62607 4.37179 4.64605C2.94721 4.66603 1.62225 5.47526 0.89502 6.76403C-0.599292 9.34158 0.506499 13.1579 1.951 15.2559C2.65831 16.295 3.50508 17.4339 4.62084 17.3939C5.67682 17.354 6.09522 16.7046 7.37037 16.7046C8.65548 16.7046 9.02408 17.3939 10.1398 17.3739C11.2954 17.3539 12.0227 16.3349 12.73 15.2959C13.5369 14.117 13.8656 12.9681 13.8856 12.9082C13.8656 12.8882 11.6541 12.039 11.6341 9.48145C11.6142 7.34348 13.3775 6.32445 13.4572 6.26451C12.461 4.78592 10.9069 4.62607 10.369 4.58611ZM18.3685 1.68887V17.264H20.7793V11.9391H24.1166C27.165 11.9391 29.3069 9.8411 29.3069 6.804C29.3069 3.76689 27.2049 1.68887 24.1963 1.68887H18.3685ZM20.7793 3.72693H23.5588C25.6508 3.72693 26.8462 4.84586 26.8462 6.81399C26.8462 8.78211 25.6508 9.91104 23.5488 9.91104H20.7793V3.72693ZM33.7101 17.3839C35.2243 17.3839 36.629 16.6147 37.2666 15.3958H37.3164V17.264H39.5479V9.51142C39.5479 7.26356 37.7547 5.81494 34.9952 5.81494C32.435 5.81494 30.5422 7.28354 30.4724 9.30162H32.6442C32.8235 8.34253 33.7101 7.71313 34.9255 7.71313C36.3999 7.71313 37.2267 8.40247 37.2267 9.67127V10.5304L34.2182 10.7103C31.4188 10.8801 29.9046 12.029 29.9046 14.0271C29.9046 16.0452 31.4686 17.3839 33.7101 17.3839ZM34.3576 15.5357C33.0725 15.5357 32.2556 14.9163 32.2556 13.9672C32.2556 12.9881 33.0426 12.4186 34.5469 12.3287L37.2267 12.1589V13.0381C37.2267 14.4967 35.9914 15.5357 34.3576 15.5357ZM42.5266 21.5C44.8776 21.5 45.9834 20.6009 46.9497 17.8735L51.1836 5.9648H48.7329L45.8937 15.166H45.8439L43.0047 5.9648H40.4843L44.5688 17.304L44.3496 17.9933C43.981 19.1622 43.3833 19.6118 42.3173 19.6118C42.1281 19.6118 41.7595 19.5918 41.61 19.5718V21.4401C41.7495 21.48 42.3472 21.5 42.5266 21.5Z" fill="black"/>
</svg>
