<svg width="161" height="26" viewBox="0 0 161 26" fill="none" xmlns="http://www.w3.org/2000/svg">
<g clip-path="url(#clip0_62_13152)">
<path d="M6.10251 13L3.21798 15.9299L0.335938 13L3.21798 10.07L6.10251 13ZM13.0968 5.88443L18.0374 10.9072L20.9195 7.97724L13.0968 0.0270996L5.27657 7.97724L8.15862 10.9072L13.0993 5.88443H13.0968ZM22.9781 10.07L20.096 13L22.9781 15.9299L25.8576 13L22.9781 10.07ZM13.0968 20.113L8.15613 15.0928L5.27407 18.0227L13.0943 25.9728L20.917 18.0227L18.0349 15.0953L13.0968 20.113ZM13.0968 15.9299L15.9788 13L13.0968 10.07L10.2147 13L13.0968 15.9299ZM43.5142 16.2115V16.1709C43.5142 14.2582 42.5161 13.3044 40.8943 12.6752C41.8923 12.1045 42.7357 11.2116 42.7357 9.60582V9.56523C42.7357 7.33038 40.9741 5.88443 38.1144 5.88443H31.6218V20.1155H38.2791C41.4382 20.1155 43.5167 18.8142 43.5142 16.2115ZM39.6763 10.1284C39.6763 11.1862 38.818 11.6327 37.4557 11.6327H34.6209V8.62917H37.6603C38.9602 8.62917 39.6788 9.15681 39.6788 10.0903L39.6763 10.1284ZM40.4548 15.8208C40.4548 16.8761 39.6364 17.3631 38.2766 17.3631H34.6209V14.2379H38.1793C39.7612 14.2379 40.4573 14.829 40.4573 15.7853L40.4548 15.8208ZM49.9818 20.1155V5.88696H46.8929V20.1155H49.9818ZM66.5354 20.1155V5.88696H63.4864V14.6488L56.9264 5.88696H54.0891V20.1155H57.1285V11.067L63.9056 20.113L66.5354 20.1155ZM83.5909 20.1155L77.582 5.7855H74.745L68.7464 20.1155H71.8853L73.1706 16.9243H79.0869L80.3694 20.1155H83.5909ZM77.9915 14.1592H74.266L76.1248 9.54748L77.9915 14.1592ZM98.2679 20.1155V5.88696H95.2188V14.6488L88.6613 5.88443H85.8215V20.113H88.8609V11.067L95.6405 20.113L98.2679 20.1155ZM114.163 17.8172L112.204 15.803C111.104 16.8177 110.126 17.4697 108.526 17.4697C106.128 17.4697 104.466 15.4403 104.466 12.9974V12.9568C104.466 10.519 106.166 8.52517 108.526 8.52517C109.924 8.52517 111.019 9.13398 112.104 10.1309L114.058 7.83516C112.76 6.53636 111.179 5.64088 108.541 5.64088C104.241 5.64088 101.245 8.95389 101.245 12.9924V13.0329C101.245 17.1196 104.304 20.3489 108.421 20.3489C111.114 20.3565 112.716 19.3824 114.153 17.8172H114.163ZM127.301 20.1155V17.3276H119.695V14.3343H126.295V11.5439H119.695V8.67229H127.191V5.88443H116.636V20.113L127.301 20.1155ZM130.974 20.118V17.9821H132.815V20.118H130.974ZM147.175 14.0375C147.175 18.1851 144.832 20.3413 141.334 20.3413C137.836 20.3413 135.502 18.1876 135.502 14.1592V5.88189H137.082V14.0578C137.082 17.1272 138.679 18.8547 141.364 18.8547C143.944 18.8547 145.586 17.2693 145.586 14.1567V5.87935H147.168L147.175 14.0375ZM155.47 12.2237C158.591 12.9163 160.033 14.0755 160.033 16.28C160.033 18.7406 158.037 20.3362 155.25 20.3362C153.029 20.3362 151.208 19.5752 149.516 18.0557L150.509 16.8685C151.969 18.2104 153.369 18.8827 155.31 18.8827C157.189 18.875 158.437 17.8806 158.437 16.4398C158.437 15.0953 157.735 14.3444 154.793 13.7128C151.572 13 150.09 11.9371 150.09 9.58299C150.09 7.30244 152.034 5.68147 154.694 5.68147C156.49 5.6282 158.242 6.25226 159.614 7.43184L158.686 8.66976C157.386 7.59164 156.086 7.12234 154.644 7.12234C152.825 7.12234 151.652 8.13704 151.652 9.44091C151.667 10.8006 152.388 11.5439 155.47 12.2237Z" fill="#F5B50B"/>
</g>
<defs>
<clipPath id="clip0_62_13152">
<rect width="160" height="26" fill="white" transform="translate(0.214844)"/>
</clipPath>
</defs>
</svg>
