<svg xmlns="http://www.w3.org/2000/svg" width="55" height="26" viewBox="0 0 55 26" fill="none">
  <g clip-path="url(#clip0_212_86)">
    <path d="M25.6969 13.4436V19.79H23.6719V4.09448H28.9369C30.2194 4.09448 31.4344 4.57217 32.3794 5.45931C33.3244 6.27821 33.7969 7.50656 33.7969 8.80314C33.7969 10.0997 33.3244 11.2598 32.3794 12.147C31.4344 13.0341 30.2869 13.5118 28.9369 13.5118L25.6969 13.4436ZM25.6969 6.00524V11.4646H29.0719C29.8144 11.4646 30.5569 11.1916 31.0294 10.6457C32.1094 9.62204 32.1094 7.91601 31.0969 6.89238L31.0294 6.82414C30.4894 6.27821 29.8144 5.937 29.0719 6.00524H25.6969Z" fill="#5F6368"/>
    <path d="M38.4544 8.73486C39.9394 8.73486 41.0869 9.14431 41.9644 9.96321C42.8419 10.7821 43.2469 11.874 43.2469 13.2388V19.79H41.3569V18.2887H41.2894C40.4794 19.517 39.3319 20.1312 37.9819 20.1312C36.8344 20.1312 35.8219 19.79 35.0119 19.1076C34.2694 18.4252 33.7969 17.4698 33.7969 16.4461C33.7969 15.3543 34.2019 14.4671 35.0119 13.7847C35.8219 13.1023 36.9694 12.8294 38.3194 12.8294C39.5344 12.8294 40.4794 13.0341 41.2219 13.5118V13.0341C41.2219 12.3517 40.9519 11.6692 40.4119 11.2598C39.8719 10.7821 39.1969 10.5091 38.4544 10.5091C37.3069 10.5091 36.4294 10.9868 35.8219 11.9422L34.0669 10.8503C35.1469 9.41728 36.5644 8.73486 38.4544 8.73486ZM35.8894 16.5144C35.8894 17.0603 36.1594 17.538 36.5644 17.811C37.0369 18.1522 37.5769 18.3569 38.1169 18.3569C38.9269 18.3569 39.7369 18.0157 40.3444 17.4015C41.0194 16.7874 41.3569 16.0367 41.3569 15.2178C40.7494 14.7401 39.8719 14.4671 38.7244 14.4671C37.9144 14.4671 37.2394 14.6719 36.6994 15.0813C36.1594 15.4225 35.8894 15.9002 35.8894 16.5144Z" fill="#5F6368"/>
    <path d="M54.1834 9.07617L47.5009 24.567H45.4759L47.9734 19.1759L43.5859 9.14441H45.7459L48.9184 16.8557H48.9859L52.0909 9.14441H54.1834V9.07617Z" fill="#5F6368"/>
    <path d="M17.6663 12.0788C17.6663 11.4647 17.5988 10.8505 17.5313 10.2363H9.09375V13.7166H13.8862C13.6837 14.8085 13.0763 15.8321 12.1313 16.4463V18.6983H15.0338C16.7213 17.1287 17.6663 14.8085 17.6663 12.0788Z" fill="#4285F4"/>
    <path d="M9.09391 20.8819C11.5239 20.8819 13.5489 20.063 15.0339 18.6982L12.1314 16.4462C11.3214 16.9922 10.3089 17.3334 9.09391 17.3334C6.79891 17.3334 4.77391 15.7638 4.09891 13.5801H1.12891V15.9003C2.68141 18.9712 5.71891 20.8819 9.09391 20.8819Z" fill="#34A853"/>
    <path d="M4.09984 13.5801C3.69484 12.4882 3.69484 11.2599 4.09984 10.0998V7.77954H1.12984C-0.152656 10.3045 -0.152656 13.3071 1.12984 15.9003L4.09984 13.5801Z" fill="#FBBC04"/>
    <path d="M9.09281 6.41478C10.3753 6.41478 11.5903 6.89247 12.5353 7.77961L15.1003 5.18643C13.4803 3.68512 11.3203 2.79798 9.16031 2.86622C5.78531 2.86622 2.68031 4.77698 1.19531 7.84785L4.16531 10.1681C4.77281 7.98433 6.79781 6.41478 9.09281 6.41478Z" fill="#EA4335"/>
  </g>
  <defs>
    <clipPath id="clip0_212_86">
      <rect width="54" height="26" fill="white" transform="translate(0.183594)"/>
    </clipPath>
  </defs>
</svg>