<svg width="67" height="33" viewBox="0 0 67 33" fill="none" xmlns="http://www.w3.org/2000/svg">
<path d="M37.7486 25.4607V32.6945H34.0177V27.6827L29.7661 28.1777C28.8323 28.2851 28.4219 28.5915 28.4219 29.1541C28.4219 29.9791 29.2016 30.3269 30.874 30.3269C31.8932 30.3269 33.0227 30.175 34.0198 29.9131L32.0889 32.65C31.3087 32.8239 30.5485 32.9098 29.7466 32.9098C26.3628 32.9098 24.432 31.5636 24.432 29.174C24.432 27.0667 25.9497 25.9599 29.3995 25.5681L33.9565 25.038C33.7101 23.7117 32.7104 23.135 30.7226 23.135C28.8566 23.135 26.7959 23.6127 24.9527 24.5037L25.5388 21.2665C27.2523 20.5494 29.2053 20.1801 31.1784 20.1801C35.5181 20.1801 37.7523 21.9841 37.7523 25.4575L37.7481 25.4601L37.7486 25.4607ZM4.18741 16.403L0.109375 32.694H4.18741L6.21112 24.5079L9.71939 28.7188H13.9715L17.4798 24.5079L19.5035 32.694H23.5815L19.5035 16.4009L11.8444 25.5089L4.1853 16.4009L4.18741 16.403ZM19.5035 0.109863L11.8444 9.21786L4.18741 0.109863L0.109375 16.403H4.18741L6.21112 8.21686L9.71939 12.4278H13.9715L17.4798 8.21686L19.5035 16.403H23.5815L19.5035 0.109863ZM47.5538 25.3088L44.2566 24.8311C43.4325 24.7017 43.1075 24.4398 43.1075 23.9841C43.1075 23.2455 43.9094 22.9197 45.5591 22.9197C47.4689 22.9197 49.1824 23.311 50.984 24.158L50.5292 20.9659C49.0748 20.4447 47.405 20.1849 45.6694 20.1849C41.6135 20.1849 39.3988 21.5971 39.3988 24.1381C39.3988 26.116 40.6138 27.2228 43.1951 27.6141L46.5372 28.1138C47.3829 28.2437 47.73 28.5695 47.73 29.0907C47.73 29.8292 46.9503 30.1771 45.366 30.1771C43.2832 30.1771 41.0269 29.6779 39.183 28.7869L39.5523 31.979C41.1366 32.5667 43.1978 32.914 45.1286 32.914C49.2942 32.914 51.463 31.4578 51.463 28.8728C51.463 26.809 50.2481 25.7001 47.5591 25.3109L47.5538 25.3088ZM52.9138 17.8565V32.6934H56.6442V17.8571L52.9138 17.8565ZM61.0034 26.0253L66.1909 20.3975H61.5484L56.6442 26.2191L61.8733 32.6913H66.5818L61.0034 26.0232V26.0253ZM52.3931 12.883C52.3931 15.2715 54.324 16.6177 57.7077 16.6177C58.5096 16.6177 59.2698 16.5302 60.0501 16.3584L61.981 13.6215C60.9839 13.8813 59.8544 14.0353 58.8351 14.0353C57.1649 14.0353 56.383 13.6875 56.383 12.8625C56.383 12.2973 56.7961 11.9935 57.7278 11.8861L61.9789 11.3911V16.4024H65.7098V9.16862C65.7098 5.69315 63.475 3.89124 59.1358 3.89124C57.1607 3.89124 55.2098 4.26053 53.4957 4.97815L52.9091 8.21424C54.7529 7.32324 56.8135 6.84553 58.679 6.84553C60.6673 6.84553 61.6671 7.42172 61.9129 8.74853L57.3564 9.27915C53.9067 9.67043 52.3884 10.7772 52.3884 12.8845L52.3931 12.883ZM41.9585 12.1014C41.9585 15.1002 43.6942 16.6203 47.1217 16.6203C48.4881 16.6203 49.6182 16.4024 50.7012 15.9027L51.1776 12.6231C50.1362 13.2517 49.0727 13.5775 48.0096 13.5775C46.4037 13.5775 45.6873 12.9264 45.6873 11.4702V7.12524H51.3491V4.10653H45.6868V1.54405L38.5922 5.30186V7.12577H41.9538V12.0999L41.958 12.102L41.9585 12.1014ZM38.292 10.7332V11.4723H28.2082C28.663 12.9772 30.0141 13.6655 32.4129 13.6655C34.3226 13.6655 36.1021 13.2742 37.6842 12.5152L37.2295 15.6874C35.775 16.2951 33.9317 16.6224 32.0441 16.6224C27.0323 16.6224 24.2995 14.4067 24.2995 10.3021C24.2995 6.19653 27.0766 3.89334 31.372 3.89334C35.6674 3.89334 38.293 6.39244 38.293 10.7353L38.2904 10.7332H38.292ZM28.1597 8.95177H34.5358C34.1997 7.51077 33.0945 6.75805 31.3282 6.75805C29.5614 6.75805 28.5137 7.49086 28.1597 8.95177Z" fill="black"/>
</svg>
