<svg width="60" height="18" viewBox="0 0 60 18" fill="none" xmlns="http://www.w3.org/2000/svg">
<path d="M13.149 6.05987H9.09908C9.09908 5.39264 9.02084 4.94472 8.86528 4.71674C8.62441 4.37957 7.95969 4.21067 6.87082 4.21067C5.81367 4.21067 5.11292 4.3075 4.77101 4.50207C4.4291 4.69726 4.25784 5.12166 4.25784 5.77467C4.25784 6.3658 4.40939 6.75556 4.7131 6.94209C4.93087 7.07449 5.21826 7.15244 5.5765 7.17564L6.39307 7.23348C8.14358 7.34979 9.23645 7.43239 9.67231 7.47909C11.0566 7.61922 12.0601 7.98857 12.6826 8.58775C13.1724 9.05515 13.4647 9.66608 13.5577 10.4199C13.6126 10.8716 13.6394 11.382 13.6394 11.9493C13.6394 13.2571 13.5152 14.2145 13.2667 14.8211C12.816 15.9347 11.8029 16.6382 10.2271 16.9336C9.56666 17.0582 8.55664 17.1207 7.19794 17.1207C4.92995 17.1207 3.34978 16.9852 2.45743 16.7127C1.3624 16.3789 0.640077 15.7027 0.290776 14.6847C0.096104 14.1177 0 13.1736 0 11.8518H4.0493L4.04961 12.1899C4.04961 12.8952 4.25137 13.3484 4.65457 13.5504C4.93365 13.6896 5.27063 13.7629 5.66675 13.7716H7.15574C7.91533 13.7716 8.40017 13.7326 8.60931 13.654C8.98172 13.5071 9.22598 13.2704 9.34272 12.9432C9.40464 12.7412 9.43544 12.4807 9.43544 12.1612C9.43544 11.4463 9.17577 11.0114 8.65675 10.8552C8.46208 10.7936 7.55956 10.7073 5.94797 10.5987C4.65365 10.5059 3.75452 10.4165 3.25121 10.3299C1.92547 10.0809 1.04174 9.56864 0.600958 8.79098C0.213154 8.13055 0.0197136 7.13109 0.0197136 5.79354C0.0197136 4.77552 0.124442 3.95888 0.3339 3.34485C0.543357 2.73051 0.880953 2.26404 1.34669 1.94511C2.02989 1.45513 2.90314 1.16807 3.96614 1.08207C4.8514 1.00443 5.83246 0.964836 6.91209 0.964836C8.61147 0.964836 9.82294 1.0632 10.5449 1.25777C12.3072 1.73322 13.1881 3.0649 13.1881 5.25344C13.1881 5.43285 13.1749 5.70135 13.1487 6.06018M30.956 17.1207V0.87915H39.0657C40.1779 0.87915 41.0265 0.970095 41.6099 1.1526C42.9437 1.57206 43.8385 2.4317 44.2969 3.72997C44.5334 4.41174 44.652 5.43811 44.652 6.80846C44.652 8.45597 44.5208 9.63948 44.2608 10.3605C43.7406 11.7859 42.6702 12.6072 41.0533 12.8197C40.8633 12.8519 40.0544 12.8801 38.6261 12.9033L37.9038 12.9274H35.3087V17.1207H30.956ZM35.309 9.16001H38.0227C38.883 9.12908 39.4063 9.06257 39.5945 8.95864C39.8517 8.81665 40.0245 8.53207 40.1105 8.1055C40.1656 7.82184 40.193 7.3996 40.193 6.83877C40.193 6.15174 40.1382 5.64258 40.0285 5.31005C39.8721 4.84388 39.4972 4.56053 38.9033 4.45721C38.7857 4.44175 38.5044 4.43339 38.059 4.43339H35.3093L35.309 9.16001ZM53.9433 14.3138H48.1235L47.3414 17.1207H42.838L47.6978 0.87915H54.2636L59.1825 17.1207H54.7737L53.9433 14.3138ZM53.079 11.15L51.0392 4.10952L49.0602 11.15H53.079Z" fill="#10298E"/>
<path d="M24.9477 3.16416C26.7428 3.16416 28.3452 3.99472 29.3983 5.29547L30.3366 3.27521C28.8691 1.88197 26.8722 1.02295 24.6692 1.02295C21.2393 1.02295 18.3054 3.10353 17.1016 6.04838H15.272L14.1914 8.37426H16.545C16.5263 8.59102 16.5166 8.80846 16.5158 9.02603C16.5158 9.29237 16.5296 9.55623 16.5558 9.81638H15.373L14.2931 12.1429H17.1577C18.396 15.0132 21.2932 17.0282 24.6692 17.0282C26.3707 17.0282 27.9497 16.5162 29.2566 15.6414V12.7903C28.2038 13.9939 26.6643 14.7546 24.9477 14.7546C22.9412 14.7546 21.1762 13.7155 20.1486 12.1429H26.1468L27.227 9.81638H19.2664C19.196 9.33881 19.1846 8.85433 19.2326 8.37396H27.897L28.9769 6.04838H19.9811C20.976 4.32416 22.8272 3.16416 24.9477 3.16416Z" fill="#FFBE00"/>
<path d="M24.9473 3.23389C26.6581 3.23389 28.2604 4.00166 29.3441 5.33984L29.414 5.42645L29.4614 5.3253L30.3994 3.30504L30.4203 3.25895L30.3843 3.2243C28.842 1.76023 26.8121 0.954102 24.6689 0.954102C22.9954 0.954102 21.3853 1.44501 20.0115 2.37425C18.6707 3.28153 17.6419 4.54299 17.0372 6.02223L17.1013 5.97892H15.227L15.2085 6.01913L14.1282 8.34532L14.082 8.44462H16.5447L16.4754 8.36883C16.4567 8.58755 16.447 8.80695 16.4461 9.02647C16.4461 9.28755 16.4597 9.55636 16.4862 9.82394L16.5555 9.74722H15.3289L15.3104 9.78744L14.2296 12.1136L14.1837 12.2129H17.1574L17.0936 12.1709C18.3848 15.164 21.3585 17.0982 24.6689 17.0982C26.3285 17.0982 27.9278 16.6154 29.2948 15.7003L29.3253 15.6799V12.6055L29.2039 12.7447C28.6726 13.3534 28.0181 13.8413 27.2841 14.1759C26.55 14.5105 25.7534 14.684 24.9473 14.6848C23.0339 14.6848 21.2615 13.7197 20.2062 12.105L20.1483 12.2132H26.1911L26.2096 12.173L27.2899 9.84621L27.3361 9.74722H19.2658L19.3348 9.80692C19.2652 9.33509 19.2539 8.85643 19.3012 8.38182L19.2319 8.44462H27.941L27.9595 8.4044L29.0394 6.07821L29.086 5.97892H19.9807L20.0408 6.08378C21.0551 4.32584 22.9353 3.23389 24.9473 3.23389ZM19.9807 6.11843H28.9763L28.9132 6.01913L27.8335 8.34532L27.8964 8.30511H19.1691L19.1623 8.36821C19.1148 8.85419 19.1264 9.34417 19.1968 9.82734L19.206 9.88704H27.2267L27.1639 9.78744L26.0839 12.1136L26.1465 12.0734H20.0192L20.0901 12.1811C21.1712 13.8366 22.9871 14.8237 24.9476 14.8237C26.6141 14.8237 28.2035 14.0999 29.3087 12.8368L29.1867 12.7908V15.6419L29.2175 15.5843C27.8733 16.4836 26.3005 16.9587 24.6689 16.9587C21.4137 16.9587 18.4905 15.0572 17.2214 12.1152L17.2029 12.0734H14.2927L14.3562 12.1733L15.4358 9.84621L15.3727 9.88704H16.6325L16.6248 9.80971C16.5986 9.54677 16.5847 9.28291 16.5847 9.02647C16.5847 8.82943 16.5946 8.61785 16.614 8.38059L16.6202 8.30511H14.1914L14.2539 8.4044L15.3342 6.07821L15.2716 6.11843H17.1475L17.1651 6.07512C17.7599 4.62156 18.7711 3.38206 20.0895 2.48994C21.4392 1.5771 23.0234 1.09423 24.6689 1.09423C26.7767 1.09423 28.7718 1.88612 30.2885 3.32607L30.2731 3.24565L29.3355 5.26621L29.4525 5.25137C28.3415 3.88102 26.7 3.09438 24.9473 3.09438C22.8854 3.09438 20.9599 4.21293 19.9203 6.01356L19.86 6.11843H19.9807Z" fill="#FFBE00"/>
</svg>
