<svg width="68" height="24" viewBox="0 0 68 24" fill="none" xmlns="http://www.w3.org/2000/svg">
<path d="M43.604 17.7875H41.495L39.0753 9.79292L36.6557 17.7875H34.5467L32.2089 6.19618H34.2198L35.8383 14.2561L38.2252 6.37602H39.9909L42.3288 14.2561L43.98 6.19618H45.9091L43.604 17.7875Z" fill="#616161"/>
<path d="M48.0847 8.10899V6H50.2754V8.10899H48.0847ZM48.1501 17.7875V9.2861H50.2264V17.7875H48.1501Z" fill="#616161"/>
<path d="M58.4029 11.1826C58.1522 11.1281 57.9179 11.1008 57.6999 11.1008C56.9806 11.1008 56.4356 11.3297 56.065 11.7875C55.6945 12.2452 55.5092 12.8174 55.5092 13.5041V17.7875H53.4492V9.2861H55.1822L55.362 10.5613C55.5582 10.0708 55.8798 9.71662 56.3266 9.49864C56.7844 9.28065 57.264 9.17166 57.7653 9.17166C57.9724 9.17166 58.1849 9.18801 58.4029 9.22071V11.1826Z" fill="#616161"/>
<path d="M67.5871 13.6022C67.5762 13.6785 67.5707 13.7493 67.5707 13.8147V14.1744H61.8814C61.8814 14.5014 61.9304 14.812 62.0285 15.1063C62.1375 15.4005 62.2955 15.6458 62.5026 15.842C62.6552 15.9837 62.8296 16.109 63.0258 16.218C63.2329 16.3161 63.4781 16.3651 63.7615 16.3651C64.0558 16.3651 64.2955 16.3379 64.4808 16.2834C64.677 16.218 64.8514 16.109 65.004 15.9564C65.2002 15.7602 65.3364 15.5204 65.4127 15.2371H67.3746C67.3528 15.4877 67.2656 15.7657 67.113 16.0708C66.9713 16.3651 66.8187 16.6104 66.6552 16.8065C66.2955 17.2316 65.865 17.5368 65.3637 17.7221C64.8623 17.9074 64.3391 18 63.7942 18C63.2056 18 62.6934 17.9074 62.2574 17.7221C61.8323 17.5259 61.4509 17.2698 61.113 16.9537C60.6879 16.5395 60.3609 16.0436 60.1321 15.4659C59.9141 14.8883 59.8051 14.2507 59.8051 13.5531C59.8051 12.8665 59.9032 12.2343 60.0994 11.6567C60.3064 11.0681 60.6171 10.5668 61.0312 10.1526C61.3473 9.82561 61.7288 9.56403 62.1757 9.36785C62.6334 9.17166 63.1566 9.07357 63.7451 9.07357C64.3773 9.07357 64.9658 9.20436 65.5108 9.46594C66.0558 9.71662 66.5026 10.109 66.8514 10.6431C67.1675 11.1117 67.3691 11.5913 67.4563 12.0817C67.5435 12.5613 67.5871 13.0681 67.5871 13.6022ZM65.5435 12.6866C65.5326 12.0654 65.3582 11.5695 65.0203 11.1989C64.8787 11.0463 64.6988 10.9264 64.4808 10.8392C64.2737 10.752 64.0231 10.7084 63.7288 10.7084C63.4127 10.7084 63.1348 10.7684 62.895 10.8883C62.6552 11.0082 62.459 11.1662 62.3064 11.3624C62.1539 11.5477 62.0449 11.7439 61.9795 11.951C61.9141 12.158 61.8759 12.4033 61.865 12.6866H65.5435Z" fill="#616161"/>
<path d="M2.11511 22.5H23.2916" stroke="#616161" stroke-width="1.2" stroke-linecap="round" stroke-linejoin="round"/>
<path d="M2.11511 19.5H23.2916" stroke="#616161" stroke-width="1.2" stroke-linecap="round" stroke-linejoin="round"/>
<path d="M23.2916 7.5H2.11511L12.7033 1.5L23.2916 7.5Z" fill="#616161" stroke="#616161" stroke-linejoin="round"/>
<path d="M2.11511 16.5V10.5H4.42278C4.8341 10.5 5.16663 10.5861 5.42036 10.7583C5.6741 10.9278 5.85973 11.1417 5.97725 11.4C6.09476 11.6583 6.15354 11.9195 6.15354 12.1833C6.15354 12.5194 6.08008 12.7986 5.93319 13.0208C5.78895 13.2431 5.58997 13.3917 5.33624 13.4667V13.2583C5.6968 13.3361 5.96656 13.5097 6.14552 13.7792C6.32714 14.0486 6.41795 14.3501 6.41795 14.6834C6.41795 15.0417 6.35385 15.357 6.22565 15.6291C6.10012 15.9014 5.9078 16.1153 5.64873 16.2708C5.38964 16.4237 5.06379 16.5 4.67117 16.5H2.11511ZM3.22086 15.4334H4.55899C4.7059 15.4334 4.83677 15.4014 4.95162 15.3375C5.06646 15.2709 5.15594 15.1791 5.22005 15.0626C5.28683 14.943 5.32021 14.8027 5.32021 14.6416C5.32021 14.5 5.29216 14.3736 5.23607 14.2624C5.17998 14.1514 5.09451 14.0638 4.97967 13.9999C4.86749 13.9333 4.72726 13.9 4.55899 13.9H3.22086V15.4334ZM3.22086 12.8417H4.40676C4.52961 12.8417 4.63912 12.8195 4.73528 12.775C4.83143 12.7306 4.90756 12.6625 4.96364 12.5708C5.01973 12.4764 5.04777 12.3556 5.04777 12.2083C5.04777 12.025 4.99302 11.8708 4.88351 11.7458C4.774 11.6208 4.61508 11.5583 4.40676 11.5583H3.22086V12.8417Z" fill="#616161"/>
<path d="M6.81824 16.5L8.58104 10.5H10.2076L11.9704 16.5H10.8486L9.27815 11.2083H9.48649L7.94003 16.5H6.81824ZM7.87592 15.2501V14.1916H10.9208V15.2501H7.87592Z" fill="#616161"/>
<path d="M12.6854 16.5V10.5H13.7912L16.2992 14.5001V10.5H17.4049V16.5H16.2992L13.7912 12.5V16.5H12.6854Z" fill="#616161"/>
<path d="M18.5214 16.5V10.5H19.6111V13.2667L21.8065 10.5H23.1367L20.7248 13.4583L23.2889 16.5H21.9107L19.6111 13.7667V16.5H18.5214Z" fill="#616161"/>
</svg>
